<mxfile host="65bd71144e">
    <diagram id="G_1iavEC1IlHCF_u6l_c" name="ページ1">
        <mxGraphModel dx="1291" dy="946" grid="1" gridSize="10" guides="1" tooltips="1" connect="1" arrows="1" fold="1" page="1" pageScale="1" pageWidth="1600" pageHeight="900" math="0" shadow="0">
            <root>
                <mxCell id="0"/>
                <mxCell id="1" parent="0"/>
                <mxCell id="2" value="トップ&lt;br&gt;front-page.php" style="rounded=0;whiteSpace=wrap;html=1;" parent="1" vertex="1">
                    <mxGeometry x="740" y="40" width="120" height="80" as="geometry"/>
                </mxCell>
                <mxCell id="4" value="Product一覧&lt;br&gt;archive-product.php" style="rounded=0;whiteSpace=wrap;html=1;" parent="1" vertex="1">
                    <mxGeometry x="820" y="200" width="120" height="80" as="geometry"/>
                </mxCell>
                <mxCell id="5" value="記事一覧&lt;br&gt;archive.php" style="rounded=0;whiteSpace=wrap;html=1;" parent="1" vertex="1">
                    <mxGeometry x="660" y="200" width="120" height="80" as="geometry"/>
                </mxCell>
                <mxCell id="6" value="&lt;font style=&quot;font-size: 12px;&quot;&gt;Skill&lt;br&gt;front-page.php&lt;/font&gt;" style="rounded=0;whiteSpace=wrap;html=1;" parent="1" vertex="1">
                    <mxGeometry x="500" y="200" width="120" height="80" as="geometry"/>
                </mxCell>
                <mxCell id="7" value="動画一覧&lt;br&gt;archive-movie.php" style="rounded=0;whiteSpace=wrap;html=1;" parent="1" vertex="1">
                    <mxGeometry x="980" y="200" width="120" height="80" as="geometry"/>
                </mxCell>
                <mxCell id="8" value="Contact&lt;br&gt;front-page.php" style="rounded=0;whiteSpace=wrap;html=1;" parent="1" vertex="1">
                    <mxGeometry x="1140" y="200" width="120" height="80" as="geometry"/>
                </mxCell>
                <mxCell id="9" value="&lt;font style=&quot;font-size: 12px;&quot;&gt;About&lt;br&gt;front-page.php&lt;/font&gt;" style="rounded=0;whiteSpace=wrap;html=1;" parent="1" vertex="1">
                    <mxGeometry x="340" y="200" width="120" height="80" as="geometry"/>
                </mxCell>
                <mxCell id="10" value="記事&lt;br&gt;single.php" style="rounded=0;whiteSpace=wrap;html=1;" parent="1" vertex="1">
                    <mxGeometry x="660" y="360" width="120" height="80" as="geometry"/>
                </mxCell>
                <mxCell id="11" value="Product&lt;br&gt;single-product.php" style="rounded=0;whiteSpace=wrap;html=1;" parent="1" vertex="1">
                    <mxGeometry x="820" y="360" width="120" height="80" as="geometry"/>
                </mxCell>
                <mxCell id="12" value="動画&lt;br&gt;single-movie.php" style="rounded=0;whiteSpace=wrap;html=1;" parent="1" vertex="1">
                    <mxGeometry x="980" y="360" width="120" height="80" as="geometry"/>
                </mxCell>
            </root>
        </mxGraphModel>
    </diagram>
</mxfile>